<svg width="229" height="252" viewBox="0 0 229 252" fill="none" xmlns="http://www.w3.org/2000/svg">
<g filter="url(#filter0_f_3_83)">
<path d="M168.042 114.208C168.042 136.183 147.523 139.866 125.835 139.866C104.146 139.866 79.2238 113.5 79.2238 91.5255C79.2238 69.5512 104.146 60.2901 125.835 60.2901C147.523 60.2901 168.042 92.2341 168.042 114.208Z" fill="#4F45E4"/>
</g>
<g filter="url(#filter1_f_3_83)">
<path d="M150.32 139.313C150.32 162.581 153.287 191.681 131.624 191.681C109.961 191.681 60.8731 150.375 60.8731 127.106C60.8731 103.838 120.592 96.7877 142.255 96.7877C163.918 96.7877 150.32 116.044 150.32 139.313Z" fill="#BA71FF" fill-opacity="0.87"/>
</g>
<path d="M103.715 163.149L97.8748 177.481C97.7528 177.78 97.5426 177.988 97.2441 178.106C96.9456 178.224 96.6472 178.22 96.3491 178.095L83.1274 172.564C82.8293 172.439 82.6208 172.226 82.502 171.925C82.3755 171.621 82.3732 171.319 82.4952 171.019L82.9362 169.937C83.0582 169.638 83.27 169.426 83.5716 169.3C83.8624 169.18 84.1569 169.182 84.4551 169.306L94.443 173.485L96.0943 169.433L87.9641 166.032C87.6659 165.907 87.4575 165.694 87.3386 165.393C87.2121 165.088 87.2083 164.79 87.3272 164.499L87.7728 163.405C87.8948 163.106 88.1066 162.893 88.4082 162.768C88.6991 162.647 88.9936 162.649 89.2917 162.774L97.422 166.175L99.3923 161.341C99.5205 161.026 99.7355 160.806 100.037 160.681C100.328 160.56 100.622 160.562 100.921 160.687L103.076 161.589C103.375 161.713 103.588 161.924 103.718 162.221C103.845 162.525 103.844 162.835 103.715 163.149Z" fill="white"/>
<path d="M74.6525 155.83L76.0299 157.163C76.8636 157.909 78.0631 158.16 79.6286 157.915L84.8482 151.928C84.9952 151.759 85.1706 151.672 85.3743 151.665C85.5718 151.653 85.7509 151.718 85.9114 151.862L87.9863 153.719C88.153 153.868 88.2426 154.043 88.255 154.243C88.2674 154.443 88.2001 154.627 88.0531 154.796L80.1054 163.913C79.9583 164.081 79.786 164.172 79.5885 164.184C79.3793 164.197 79.1945 164.132 79.0339 163.988L76.959 162.131C76.7923 161.982 76.7055 161.804 76.6985 161.598C76.6861 161.398 76.7534 161.213 76.9004 161.045L77.415 160.454C76.3822 160.353 75.4802 160.152 74.7092 159.851C73.9265 159.551 73.0628 158.978 72.118 158.132C71.9512 157.983 71.8644 157.805 71.8574 157.599C71.8388 157.393 71.9003 157.209 72.0419 157.047L73.2835 155.623C73.4305 155.454 73.6059 155.366 73.8096 155.36C74.0072 155.347 74.1893 155.416 74.3561 155.565L74.6525 155.83Z" fill="white"/>
<path d="M77.7178 145.474C77.3434 147.203 76.1602 148.662 74.1681 149.852C72.1689 151.046 70.3356 151.388 68.6681 150.879C66.9935 150.373 65.5477 149.075 64.3309 146.983C63.1098 144.884 62.6865 142.97 63.0609 141.241C63.4281 139.516 64.6113 138.057 66.6105 136.863C68.6026 135.673 70.4359 135.331 72.1105 135.836C73.7851 136.342 75.233 137.644 76.454 139.743C77.6709 141.834 78.0921 143.744 77.7178 145.474ZM68.8367 147.115C69.6714 147.215 70.7219 146.887 71.9883 146.13C73.2547 145.374 74.0504 144.6 74.3754 143.807C74.7004 143.015 74.5858 142.142 74.0315 141.189C73.4731 140.23 72.773 139.702 71.9312 139.606C71.0853 139.503 70.0291 139.83 68.7627 140.586C67.4963 141.343 66.7063 142.119 66.3926 142.914C66.0747 143.702 66.1949 144.576 66.7534 145.536C67.3076 146.489 68.0021 147.015 68.8367 147.115Z" fill="white"/>
<path d="M71.4203 131.63L59.515 133.761C59.2947 133.801 59.1032 133.763 58.9403 133.649C58.7679 133.529 58.6631 133.362 58.6261 133.15L58.1477 130.407C58.1107 130.195 58.1535 130.006 58.2761 129.841C58.3892 129.669 58.5558 129.564 58.7761 129.524L59.5469 129.386C58.1192 128.194 57.2673 126.806 56.9911 125.222C56.7135 123.63 56.9732 122.249 57.7702 121.08C58.559 119.911 59.9486 119.149 61.9389 118.793L68.9622 117.535C69.1743 117.497 69.3666 117.539 69.5391 117.659C69.7019 117.773 69.8026 117.941 69.841 118.161L70.3173 120.892C70.3543 121.104 70.3163 121.296 70.2032 121.468C70.0806 121.633 69.9133 121.734 69.7012 121.772L62.6779 123.03C60.7283 123.379 59.8895 124.333 60.1614 125.892C60.3394 126.913 61.1134 127.902 62.4835 128.861L70.6814 127.393C70.8935 127.355 71.0858 127.396 71.2582 127.517C71.4211 127.631 71.5211 127.794 71.5581 128.006L72.0364 130.749C72.0735 130.962 72.0355 131.154 71.9224 131.325C71.7998 131.49 71.6324 131.592 71.4203 131.63Z" fill="white"/>
<path d="M68.474 108.163L68.5533 106.455L68.6146 105.999C68.6444 105.777 68.7385 105.606 68.8969 105.486C69.0563 105.357 69.2468 105.308 69.4685 105.339L70.786 105.521C70.9666 105.546 71.1208 105.642 71.2487 105.811C71.3695 105.97 71.4314 106.162 71.4344 106.388C71.4859 107.249 71.421 108.352 71.2399 109.699C70.7648 113.231 68.6803 114.742 64.9863 114.231L53.387 112.63C53.1654 112.599 52.9942 112.505 52.8734 112.346C52.7455 112.177 52.696 111.986 52.7247 111.773L53.0959 109.013C53.1246 108.8 53.2222 108.634 53.3888 108.514C53.5482 108.386 53.7387 108.337 53.9604 108.367L58.0731 108.935L58.5354 105.498C58.5641 105.285 58.6577 105.118 58.816 104.997C58.9754 104.869 59.166 104.82 59.3876 104.85L60.8529 105.053C61.0745 105.083 61.2452 105.182 61.3649 105.349C61.4856 105.508 61.5317 105.694 61.5029 105.908L61.0406 109.345L65.5596 109.969C66.3969 110.085 67.072 109.977 67.5847 109.646C68.0892 109.314 68.3857 108.82 68.474 108.163Z" fill="white"/>
<path d="M71.1036 101.774C69.4756 102.415 67.6355 102.249 65.5833 101.278C63.5236 100.302 62.2123 98.971 61.6493 97.2833C61.0788 95.5921 61.2709 93.7118 62.2254 91.6425C63.1799 89.5731 64.4636 88.2143 66.0767 87.5662C67.6822 86.9145 69.4886 87.0638 71.4959 88.0142L72.1362 88.3174C72.3384 88.4132 72.4757 88.5607 72.5481 88.76C72.6164 88.9482 72.6037 89.1439 72.51 89.347L68.5896 97.8464C69.5455 98.2074 70.3373 98.2614 70.965 98.0085C71.5961 97.7481 72.1425 97.1174 72.6042 96.1166C73.0658 95.1158 73.157 94.3247 72.8776 93.7432C72.5983 93.1617 72.5799 92.5982 72.8223 92.0529L73.5981 90.3711C73.6918 90.1679 73.8356 90.0343 74.0294 89.9702C74.2192 89.895 74.4152 89.9053 74.6174 90.0011C76.7669 91.0189 76.8887 93.584 74.9826 97.6966C74.0246 99.7735 72.7316 101.132 71.1036 101.774ZM66.2087 96.7466L68.6296 91.498C66.8274 90.7363 65.5409 91.1907 64.7704 92.8613C64.0033 94.5243 64.4827 95.8194 66.2087 96.7466Z" fill="white"/>
<path d="M78.5145 88.8971L70.0635 80.2448C69.9072 80.0848 69.8296 79.9045 69.8306 79.704C69.8317 79.4916 69.9083 79.3092 70.0605 79.1566L72.0268 77.1852C72.1789 77.0327 72.3568 76.9599 72.5605 76.9668C72.7643 76.962 72.9444 77.0396 73.1007 77.1997L73.6479 77.7599C73.8148 75.8911 74.4659 74.3876 75.6012 73.2493C76.7424 72.1052 78.0144 71.5279 79.4174 71.5175C80.8146 71.5012 82.2196 72.2163 83.6324 73.6628L88.6179 78.767C88.7685 78.9212 88.8432 79.1044 88.8421 79.3167C88.841 79.5172 88.7615 79.6967 88.6035 79.8551L86.646 81.8178C86.4939 81.9703 86.3159 82.049 86.1121 82.0538C85.9084 82.0469 85.7313 81.9663 85.5807 81.8122L80.5953 76.708C79.2114 75.2912 77.9606 75.1431 76.8429 76.2637C76.1114 76.9972 75.7412 78.2073 75.7324 79.894L81.5517 85.8519C81.7022 86.006 81.7769 86.1893 81.7758 86.4016C81.7748 86.6021 81.6982 86.7786 81.546 86.9312L79.5798 88.9026C79.4276 89.0552 79.2497 89.1339 79.0459 89.1387C78.8422 89.1318 78.6651 89.0512 78.5145 88.8971Z" fill="white"/>
<path d="M96.0493 76.2279C94.4731 76.9457 92.9064 76.99 91.349 76.3607C89.7992 75.728 88.5639 74.3739 87.6431 72.2984C86.719 70.2153 86.5584 68.3718 87.1613 66.7679C87.7684 65.1529 88.9996 63.923 90.8548 63.0782C91.8126 62.642 92.9881 62.3389 94.3812 62.1688L92.8337 58.6806C92.743 58.4761 92.7332 58.2802 92.8043 58.0931C92.8795 57.8949 93.0152 57.7512 93.2113 57.6619L95.734 56.5131C95.9376 56.4204 96.1338 56.413 96.3224 56.4909C96.5153 56.5579 96.6571 56.6936 96.7479 56.8982L103.356 71.7942C103.444 71.9911 103.45 72.1887 103.374 72.3869C103.303 72.574 103.166 72.714 102.962 72.8067L100.79 73.7958C100.587 73.8885 100.392 73.8997 100.207 73.8293C100.018 73.7513 99.8801 73.6139 99.7927 73.4169L99.6365 73.0647C98.8212 74.4557 97.6255 75.5101 96.0493 76.2279ZM92.8892 65.457C91.8484 65.9309 91.2442 66.5612 91.0764 67.3478C90.9053 68.1268 91.1071 69.164 91.6817 70.4593C92.2563 71.7546 92.8783 72.6049 93.5477 73.0103C94.217 73.4157 94.959 73.4329 95.7735 73.062C96.5955 72.6877 97.3983 71.9123 98.1819 70.7361L95.5456 64.7935C94.4383 64.9336 93.5528 65.1547 92.8892 65.457Z" fill="white"/>
<path d="M115.607 69.8093L118.297 54.5692C118.356 54.2347 118.519 53.9737 118.788 53.7865C119.057 53.5993 119.35 53.5344 119.668 53.5918L126.506 54.8274C130.045 55.4668 132.493 56.6417 133.849 58.3519C135.214 60.0555 135.629 62.4211 135.095 65.4487C134.562 68.4681 133.364 70.5379 131.5 71.6579C129.644 72.7795 126.947 73.0205 123.408 72.381L116.57 71.1455C116.252 71.088 115.997 70.9325 115.806 70.6791C115.617 70.4175 115.55 70.1276 115.607 69.8093ZM120.631 68.3045L123.885 68.8925C126.078 69.2888 127.641 69.1586 128.573 68.5018C129.505 67.845 130.142 66.5495 130.484 64.6154C130.826 62.6732 130.673 61.2307 130.023 60.2881C129.375 59.3372 127.954 58.6636 125.76 58.2673L122.506 57.6793L120.631 68.3045Z" fill="white"/>
<path d="M136.022 74.8563C135.589 73.1412 135.975 71.3209 137.178 69.3957C138.387 67.4634 139.854 66.3277 141.581 65.9885C143.312 65.6424 145.136 66.0847 147.054 67.3156C148.972 68.5465 150.152 70.0125 150.593 71.7136C151.039 73.4077 150.673 75.1963 149.496 77.0794L149.12 77.6802C149.002 77.8699 148.84 77.9877 148.635 78.0336C148.442 78.077 148.251 78.0382 148.063 77.9174L140.186 72.8618C139.715 73.7708 139.566 74.5564 139.739 75.2184C139.918 75.8849 140.471 76.5158 141.399 77.1111C142.327 77.7064 143.093 77.903 143.698 77.7007C144.304 77.4984 144.86 77.5549 145.366 77.8701L146.925 78.8705C147.113 78.9914 147.227 79.1531 147.266 79.3556C147.317 79.5557 147.283 79.7505 147.165 79.9402C145.904 81.9569 143.368 81.7375 139.558 79.2821C137.633 78.0468 136.454 76.5715 136.022 74.8563ZM141.555 70.6245L146.42 73.7465C147.387 72.0434 147.096 70.6951 145.548 69.7014C144.007 68.7123 142.676 69.0199 141.555 70.6245Z" fill="white"/>
<path d="M157.289 75.6971L158.735 77.596C158.951 77.8795 159.072 78.2104 159.1 78.5885C159.134 78.9615 159.064 79.3003 158.889 79.6048L154.843 87.0732L162.993 84.995C163.328 84.9015 163.669 84.9188 164.016 85.0469C164.37 85.1699 164.655 85.3731 164.871 85.6566L166.324 87.5655C166.5 87.7963 166.531 88.0142 166.416 88.2194C166.376 88.3034 166.301 88.383 166.192 88.458C166.094 88.5346 165.953 88.5967 165.771 88.6445L153.508 91.4136C153.163 91.4939 152.811 91.4692 152.452 91.3397C152.104 91.2116 151.828 91.0124 151.622 90.742L150.515 89.2881C150.309 89.0178 150.189 88.6961 150.155 88.3231C150.128 87.945 150.196 87.5971 150.36 87.2794L156.118 75.9651C156.212 75.7869 156.308 75.6595 156.406 75.583C156.739 75.3228 157.033 75.3608 157.289 75.6971Z" fill="white"/>
<path d="M157.864 98.4205C158.633 96.8319 160.098 95.6895 162.26 94.9932C164.429 94.2944 166.285 94.371 167.829 95.223C169.381 96.0724 170.499 97.5843 171.181 99.7586C171.863 101.933 171.828 103.812 171.074 105.395C170.328 106.976 168.898 108.107 166.785 108.788L166.11 109.006C165.897 109.074 165.697 109.06 165.511 108.964C165.335 108.872 165.213 108.72 165.146 108.507L162.343 99.5761C161.398 99.9678 160.779 100.472 160.486 101.089C160.196 101.713 160.215 102.551 160.545 103.603C160.875 104.654 161.338 105.298 161.933 105.533C162.528 105.768 162.918 106.168 163.105 106.735L163.659 108.502C163.726 108.716 163.71 108.913 163.61 109.093C163.521 109.278 163.37 109.405 163.157 109.474C160.893 110.203 159.086 108.404 157.737 104.077C157.052 101.895 157.094 100.009 157.864 98.4205ZM164.832 98.7482L166.563 104.263C168.4 103.584 169.042 102.367 168.492 100.612C167.943 98.8646 166.723 98.2433 164.832 98.7482Z" fill="white"/>
<path d="M160.527 113.293L176.807 112.551C177.03 112.541 177.215 112.603 177.362 112.737C177.518 112.879 177.601 113.058 177.61 113.273L177.734 116.055C177.743 116.27 177.677 116.452 177.534 116.599C177.4 116.755 177.221 116.837 176.997 116.848L160.718 117.589C160.503 117.599 160.318 117.533 160.162 117.391C160.015 117.256 159.937 117.082 159.927 116.866L159.804 114.085C159.794 113.869 159.856 113.684 159.99 113.529C160.133 113.381 160.312 113.302 160.527 113.293Z" fill="white"/>
<path d="M161.414 122.7C162.858 121.705 164.712 121.466 166.973 121.984C169.243 122.504 170.815 123.527 171.689 125.053C172.57 126.581 172.748 128.526 172.221 130.888C171.692 133.258 170.705 134.94 169.261 135.936C167.824 136.933 165.971 137.171 163.701 136.652C161.439 136.134 159.868 135.111 158.986 133.582C158.104 132.054 157.928 130.105 158.456 127.736C158.983 125.374 159.969 123.695 161.414 122.7ZM169.017 127.667C168.474 127.016 167.484 126.526 166.046 126.197C164.608 125.867 163.502 125.878 162.728 126.227C161.954 126.577 161.447 127.29 161.207 128.365C160.965 129.449 161.119 130.318 161.67 130.971C162.219 131.632 163.212 132.127 164.65 132.457C166.087 132.786 167.19 132.771 167.958 132.411C168.724 132.059 169.228 131.342 169.47 130.258C169.71 129.182 169.559 128.319 169.017 127.667Z" fill="white"/>
<path d="M153.236 134.925L166.841 143.872C167.028 143.995 167.142 144.155 167.184 144.351C167.228 144.558 167.192 144.753 167.076 144.934L165.781 146.954C165.665 147.135 165.507 147.245 165.306 147.281C165.108 147.329 164.915 147.292 164.728 147.169L164.417 146.964C164.486 148.577 164.053 150.112 163.119 151.57C162.185 153.029 160.892 153.909 159.242 154.212C157.598 154.52 155.824 154.047 153.92 152.795C152.023 151.547 150.893 150.085 150.531 148.409C150.168 146.732 150.537 145.036 151.636 143.319C152.204 142.433 153.027 141.541 154.104 140.643L150.916 138.546C150.729 138.423 150.616 138.26 150.579 138.057C150.531 137.856 150.564 137.665 150.681 137.484L152.183 135.139C152.299 134.958 152.46 134.846 152.665 134.802C152.858 134.761 153.049 134.802 153.236 134.925ZM156.503 142.221C155.642 142.934 155.015 143.598 154.622 144.212C154.01 145.168 153.846 146.022 154.131 146.775C154.412 147.535 155.144 148.304 156.328 149.083C157.512 149.861 158.494 150.234 159.273 150.201C160.054 150.179 160.688 149.788 161.176 149.028C161.659 148.274 161.908 147.194 161.924 145.786L156.503 142.221Z" fill="white"/>
<path d="M146.953 152.001C148.689 152.197 150.235 153.206 151.591 155.028C152.951 156.856 153.484 158.649 153.19 160.406C152.902 162.169 151.852 163.743 150.041 165.126C148.229 166.509 146.461 167.109 144.734 166.926C143.012 166.75 141.489 165.771 140.163 163.989L139.74 163.421C139.607 163.241 139.555 163.046 139.584 162.836C139.612 162.637 139.715 162.47 139.893 162.335L147.332 156.654C146.657 155.886 145.984 155.467 145.312 155.397C144.633 155.331 143.856 155.633 142.98 156.302C142.104 156.971 141.653 157.628 141.627 158.273C141.601 158.918 141.354 159.426 140.884 159.794L139.413 160.918C139.235 161.054 139.045 161.105 138.844 161.071C138.642 161.048 138.474 160.947 138.34 160.768C136.92 158.86 138.014 156.533 141.622 153.789C143.44 152.401 145.217 151.805 146.953 152.001ZM148.917 158.743L144.323 162.251C145.556 163.77 146.904 163.971 148.366 162.854C149.822 161.743 150.005 160.372 148.917 158.743Z" fill="white"/>
<path d="M128.471 172L130.3 171.433C131.355 171.06 132.163 170.124 132.725 168.625L130.14 161.114C130.067 160.903 130.078 160.706 130.173 160.523C130.26 160.342 130.405 160.217 130.608 160.145L133.233 159.217C133.444 159.143 133.639 159.148 133.818 159.235C133.996 159.321 134.122 159.47 134.195 159.681L138.131 171.118C138.204 171.329 138.197 171.525 138.11 171.705C138.018 171.896 137.87 172.027 137.667 172.099L135.042 173.027C134.831 173.101 134.635 173.091 134.453 172.997C134.275 172.911 134.149 172.762 134.076 172.55L133.821 171.81C133.224 172.671 132.605 173.369 131.965 173.903C131.32 174.447 130.4 174.93 129.204 175.353C128.993 175.427 128.797 175.418 128.616 175.324C128.429 175.24 128.301 175.096 128.231 174.893L127.616 173.106C127.543 172.895 127.554 172.697 127.649 172.514C127.736 172.334 127.885 172.207 128.096 172.132L128.471 172Z" fill="white"/>
<defs>
<filter id="filter0_f_3_83" x="19.2238" y="0.2901" width="208.818" height="199.576" filterUnits="userSpaceOnUse" color-interpolation-filters="sRGB">
<feFlood flood-opacity="0" result="BackgroundImageFix"/>
<feBlend mode="normal" in="SourceGraphic" in2="BackgroundImageFix" result="shape"/>
<feGaussianBlur stdDeviation="30" result="effect1_foregroundBlur_3_83"/>
</filter>
<filter id="filter1_f_3_83" x="0.873077" y="36.7877" width="213.66" height="214.894" filterUnits="userSpaceOnUse" color-interpolation-filters="sRGB">
<feFlood flood-opacity="0" result="BackgroundImageFix"/>
<feBlend mode="normal" in="SourceGraphic" in2="BackgroundImageFix" result="shape"/>
<feGaussianBlur stdDeviation="30" result="effect1_foregroundBlur_3_83"/>
</filter>
</defs>
</svg>
